<svg width="40" height="40" viewBox="0 0 40 40" fill="none" xmlns="http://www.w3.org/2000/svg">
<g id="play">
<path id="Vector" d="M12.7727 5.58141C12.5733 5.43946 12.3387 5.35512 12.0946 5.33764C11.8505 5.32015 11.6063 5.37019 11.3887 5.48228C11.1711 5.59437 10.9886 5.76418 10.8611 5.9731C10.7337 6.18202 10.6662 6.422 10.666 6.66674V33.3334C10.6662 33.5781 10.7337 33.8181 10.8611 34.027C10.9886 34.236 11.1711 34.4058 11.3887 34.5179C11.6063 34.63 11.8505 34.68 12.0946 34.6625C12.3387 34.645 12.5733 34.5607 12.7727 34.4187L31.4394 21.0854C31.6122 20.9621 31.7531 20.7992 31.8503 20.6105C31.9475 20.4217 31.9982 20.2124 31.9982 20.0001C31.9982 19.7877 31.9475 19.5785 31.8503 19.3897C31.7531 19.2009 31.6122 19.0381 31.4394 18.9147L12.7727 5.58141Z" fill="#D80100"/>
</g>
</svg>
